G04 ================== begin FILE IDENTIFICATION RECORD ==================*
G04 Layout Name:  C:/Users/user/Desktop/work_OrCAD/my_test801/allegro/MY_TEST801.brd*
G04 Film Name:    SilkT*
G04 File Format:  Gerber RS274X*
G04 File Origin:  Cadence Allegro 17.2-P019*
G04 Origin Date:  Thu Aug 01 11:32:56 2019*
G04 *
G04 Layer:  BOARD GEOMETRY/DIMENSION*
G04 Layer:  BOARD GEOMETRY/DESIGN_OUTLINE*
G04 Layer:  REF DES/SILKSCREEN_TOP*
G04 Layer:  PACKAGE GEOMETRY/SILKSCREEN_TOP*
G04 Layer:  BOARD GEOMETRY/SILKSCREEN_TOP*
G04 *
G04 Offset:    (0.000 0.000)*
G04 Mirror:    No*
G04 Mode:      Positive*
G04 Rotation:  0*
G04 FullContactRelief:  No*
G04 UndefLineWidth:     0.200*
G04 ================== end FILE IDENTIFICATION RECORD ====================*
%FSLAX25Y25*MOMM*%
%IR0*IPPOS*OFA0.00000B0.00000*MIA0B0*SFA1.00000B1.00000*%
%ADD10C,.2*%
G75*
%LPD*%
G75*
G54D10*
G01X0Y0D02*
Y7000000D01*
X10000000D01*
Y0D01*
X0D01*
G01Y7250000D02*
Y8632000D01*
G01X4251000Y8382000D02*
X0D01*
G01X400000Y8444500D02*
X0Y8382000D01*
X400000Y8319500D01*
Y8444500D01*
G01X889000Y1905000D02*
X1143000D01*
Y1143000D01*
X889000D01*
Y1905000D01*
G01X957100Y2047700D02*
X962000Y2039900D01*
X967800Y2034600D01*
X974700Y2032000D01*
X982400Y2034600D01*
X988300Y2039900D01*
X994100Y2047700D01*
X996100Y2058200D01*
Y2110700D01*
G01X1036800Y2097600D02*
X1042600Y2105500D01*
X1049500Y2109400D01*
X1057200Y2110700D01*
X1067000Y2108100D01*
X1073800Y2101500D01*
X1075700Y2093600D01*
X1074800Y2085800D01*
X1070900Y2079200D01*
X1051400Y2066100D01*
X1042600Y2056900D01*
X1036800Y2043800D01*
X1034900Y2032000D01*
X1075700D01*
G01X1625600Y2921000D02*
X914400D01*
Y3175000D01*
X1625600D01*
Y2921000D01*
G01X1016000Y4191000D02*
G03I-254000J0D01*
G01X732600Y4688400D02*
X723000Y4694800D01*
X711700Y4699000D01*
X698900D01*
X684400Y4692600D01*
X673100Y4682100D01*
X665100Y4669400D01*
X658600Y4648200D01*
X657000Y4629100D01*
X660300Y4610100D01*
X665100Y4597400D01*
X674700Y4584700D01*
X686000Y4576200D01*
X697200Y4572000D01*
X708500D01*
X719800Y4576200D01*
X729400Y4582600D01*
X737500Y4591000D01*
G01X796200Y4677800D02*
X805800Y4690500D01*
X817100Y4696900D01*
X830000Y4699000D01*
X846100Y4694800D01*
X857300Y4684200D01*
X860500Y4671500D01*
X858900Y4658800D01*
X852500Y4648200D01*
X820300Y4627000D01*
X805800Y4612200D01*
X796200Y4591000D01*
X793000Y4572000D01*
X860500D01*
G01X1211100Y3302000D02*
Y3380700D01*
X1235500D01*
X1243300Y3376800D01*
X1248100Y3371500D01*
X1250100Y3361000D01*
X1248100Y3350500D01*
X1242300Y3344000D01*
X1235500Y3340000D01*
X1211100D01*
G01X1235500D02*
X1250100Y3302000D01*
G01X1309300D02*
X1316100Y3303300D01*
X1323900Y3307200D01*
X1328800Y3313800D01*
X1330700Y3323000D01*
X1328800Y3332200D01*
X1322900Y3340000D01*
X1314200Y3344000D01*
X1304400D01*
X1298600Y3346600D01*
X1293700Y3353200D01*
X1291800Y3362300D01*
X1294700Y3371500D01*
X1301500Y3378100D01*
X1309300Y3380700D01*
X1317100Y3378100D01*
X1323900Y3371500D01*
X1326800Y3362300D01*
X1324900Y3353200D01*
X1320000Y3346600D01*
X1314200Y3344000D01*
X1304400D01*
X1295700Y3340000D01*
X1289800Y3332200D01*
X1287900Y3323000D01*
X1289800Y3313800D01*
X1294700Y3307200D01*
X1302500Y3303300D01*
X1309300Y3302000D01*
G01X1625600Y4953000D02*
X1778000D01*
X1841500Y4889500D01*
X1968500D01*
X2032000Y4953000D01*
X2184400D01*
Y3937000D01*
X1625600D01*
Y4953000D01*
G01X1465100Y6350000D02*
Y6428700D01*
X1489500D01*
X1497300Y6424800D01*
X1502100Y6419500D01*
X1504100Y6409000D01*
X1502100Y6398500D01*
X1496300Y6392000D01*
X1489500Y6388000D01*
X1465100D01*
G01X1489500D02*
X1504100Y6350000D01*
G01X1563300D02*
Y6428700D01*
X1551600Y6413000D01*
G01Y6350000D02*
X1575000D01*
G01X1168400Y6223000D02*
X1879600D01*
Y5969000D01*
X1168400D01*
Y6223000D01*
G01X2794000Y889000D02*
G03I-254000J0D01*
G01X2510600Y1386400D02*
X2501000Y1392800D01*
X2489700Y1397000D01*
X2476900D01*
X2462400Y1390600D01*
X2451100Y1380100D01*
X2443100Y1367400D01*
X2436600Y1346200D01*
X2435000Y1327100D01*
X2438300Y1308100D01*
X2443100Y1295400D01*
X2452700Y1282700D01*
X2464000Y1274200D01*
X2475200Y1270000D01*
X2486500D01*
X2497800Y1274200D01*
X2507400Y1280600D01*
X2515500Y1289000D01*
G01X2569400D02*
X2579000Y1278500D01*
X2590300Y1272100D01*
X2604700Y1270000D01*
X2619200Y1274200D01*
X2630500Y1282700D01*
X2638500Y1297500D01*
X2640100Y1314400D01*
X2636900Y1331400D01*
X2628900Y1342000D01*
X2617600Y1350400D01*
X2606400Y1352500D01*
X2595100Y1350400D01*
X2580600Y1342000D01*
X2585400Y1397000D01*
X2628900D01*
G01X2794000Y1905000D02*
G03I-254000J0D01*
G01X2510600Y2402400D02*
X2501000Y2408800D01*
X2489700Y2413000D01*
X2476900D01*
X2462400Y2406600D01*
X2451100Y2396100D01*
X2443100Y2383400D01*
X2436600Y2362200D01*
X2435000Y2343100D01*
X2438300Y2324100D01*
X2443100Y2311400D01*
X2452700Y2298700D01*
X2464000Y2290200D01*
X2475200Y2286000D01*
X2486500D01*
X2497800Y2290200D01*
X2507400Y2296600D01*
X2515500Y2305000D01*
G01X2569400Y2311400D02*
X2579000Y2296600D01*
X2591900Y2288100D01*
X2606400Y2286000D01*
X2619200Y2288100D01*
X2632100Y2298700D01*
X2640100Y2311400D01*
X2641700Y2324100D01*
X2638500Y2338900D01*
X2627300Y2349500D01*
X2616000Y2353700D01*
X2601500D01*
G01X2616000D02*
X2625700Y2360100D01*
X2633700Y2370700D01*
X2636900Y2383400D01*
X2633700Y2396100D01*
X2625700Y2406600D01*
X2611200Y2413000D01*
X2596700Y2410900D01*
X2582200Y2402400D01*
G01X2222500Y3429000D02*
X2857500D01*
Y2921000D01*
X2222500D01*
Y3429000D01*
G01X2370200Y3683000D02*
X2410400Y3556000D01*
X2450700Y3683000D01*
G01X2507800Y3556000D02*
Y3683000D01*
X2548000D01*
X2560900Y3676600D01*
X2568900Y3668200D01*
X2572100Y3651200D01*
X2568900Y3634300D01*
X2559300Y3623700D01*
X2548000Y3617400D01*
X2507800D01*
G01X2548000D02*
X2572100Y3556000D01*
G01X2669400D02*
Y3683000D01*
X2650100Y3657600D01*
G01Y3556000D02*
X2688700D01*
G01X1931900Y5207000D02*
Y5116000D01*
X1938300Y5096900D01*
X1951200Y5084200D01*
X1967200Y5080000D01*
X1983300Y5084200D01*
X1996200Y5096900D01*
X2002600Y5116000D01*
Y5207000D01*
G01X2096700Y5080000D02*
Y5207000D01*
X2077400Y5181600D01*
G01Y5080000D02*
X2116000D01*
G01X3243100Y4572000D02*
Y4650700D01*
X3267500D01*
X3275300Y4646800D01*
X3280100Y4641500D01*
X3282100Y4631000D01*
X3280100Y4620500D01*
X3274300Y4614000D01*
X3267500Y4610000D01*
X3243100D01*
G01X3267500D02*
X3282100Y4572000D01*
G01X3319900Y4583800D02*
X3325700Y4577200D01*
X3332500Y4573300D01*
X3341300Y4572000D01*
X3350100Y4574600D01*
X3356900Y4579900D01*
X3361700Y4589100D01*
X3362700Y4599500D01*
X3360800Y4610000D01*
X3355900Y4616600D01*
X3349100Y4621800D01*
X3342300Y4623200D01*
X3335500Y4621800D01*
X3326700Y4616600D01*
X3329600Y4650700D01*
X3355900D01*
G01X2946400Y4445000D02*
X3657600D01*
Y4191000D01*
X2946400D01*
Y4445000D01*
G01X3683000Y2628900D02*
Y3340100D01*
X3937000D01*
Y2628900D01*
X3683000D01*
G01X3751100Y3556000D02*
Y3634700D01*
X3775500D01*
X3783300Y3630800D01*
X3788100Y3625500D01*
X3790100Y3615000D01*
X3788100Y3604500D01*
X3782300Y3598000D01*
X3775500Y3594000D01*
X3751100D01*
G01X3775500D02*
X3790100Y3556000D01*
G01X3830800Y3588800D02*
X3837600Y3598000D01*
X3843500Y3603200D01*
X3851200Y3605800D01*
X3858100Y3603200D01*
X3862900Y3598000D01*
X3866800Y3590100D01*
X3867800Y3580900D01*
X3866800Y3573100D01*
X3862900Y3565200D01*
X3857100Y3558600D01*
X3850300Y3556000D01*
X3842500Y3558600D01*
X3835700Y3566500D01*
X3831800Y3578300D01*
X3830800Y3591400D01*
X3832800Y3608500D01*
X3835700Y3617600D01*
X3840500Y3626800D01*
X3847400Y3633400D01*
X3854200Y3634700D01*
X3861000Y3632100D01*
X3865800Y3625500D01*
G01X3810000Y5740400D02*
Y6451600D01*
X4064000D01*
Y5740400D01*
X3810000D01*
G01X4005100Y6604000D02*
Y6682700D01*
X4029500D01*
X4037300Y6678800D01*
X4042100Y6673500D01*
X4044100Y6663000D01*
X4042100Y6652500D01*
X4036300Y6646000D01*
X4029500Y6642000D01*
X4005100D01*
G01X4029500D02*
X4044100Y6604000D01*
G01X4084800Y6669600D02*
X4090600Y6677500D01*
X4097500Y6681400D01*
X4105200Y6682700D01*
X4115000Y6680100D01*
X4121800Y6673500D01*
X4123700Y6665600D01*
X4122800Y6657800D01*
X4118900Y6651200D01*
X4099400Y6638100D01*
X4090600Y6628900D01*
X4084800Y6615800D01*
X4082900Y6604000D01*
X4123700D01*
G01X4445000Y1143000D02*
X4572000D01*
X4635500Y1079500D01*
X4762500D01*
X4826000Y1143000D01*
X4953000D01*
Y635000D01*
X4445000D01*
Y1143000D01*
G01Y2159000D02*
X4572000D01*
X4635500Y2095500D01*
X4762500D01*
X4826000Y2159000D01*
X4953000D01*
Y1651000D01*
X4445000D01*
Y2159000D01*
G01X4783200Y1333500D02*
Y1288000D01*
X4785900Y1278500D01*
X4791300Y1272100D01*
X4798100Y1270000D01*
X4804900Y1272100D01*
X4810300Y1278500D01*
X4813000Y1288000D01*
Y1333500D01*
G01X4852500Y1270000D02*
X4853900Y1283800D01*
X4855900Y1295400D01*
X4858600Y1306000D01*
X4862000Y1317600D01*
X4867400Y1333500D01*
X4840400D01*
G01X4529200Y2349500D02*
Y2304000D01*
X4531900Y2294500D01*
X4537300Y2288100D01*
X4544100Y2286000D01*
X4550900Y2288100D01*
X4556300Y2294500D01*
X4559000Y2304000D01*
Y2349500D01*
G01X4585000Y2295500D02*
X4589100Y2290200D01*
X4593800Y2287100D01*
X4599900Y2286000D01*
X4606000Y2288100D01*
X4610700Y2292300D01*
X4614100Y2299800D01*
X4614800Y2308200D01*
X4613400Y2316700D01*
X4610000Y2322000D01*
X4605300Y2326200D01*
X4600600Y2327300D01*
X4595800Y2326200D01*
X4589800Y2322000D01*
X4591800Y2349500D01*
X4610000D01*
G01X4889500Y2628900D02*
Y3340100D01*
X5143500D01*
Y2628900D01*
X4889500D01*
G01X4419600Y4953000D02*
X4572000D01*
X4635500Y4889500D01*
X4762500D01*
X4826000Y4953000D01*
X4978400D01*
Y3937000D01*
X4419600D01*
Y4953000D01*
G01X4725900Y5207000D02*
Y5116000D01*
X4732300Y5096900D01*
X4745200Y5084200D01*
X4761200Y5080000D01*
X4777300Y5084200D01*
X4790200Y5096900D01*
X4796600Y5116000D01*
Y5207000D01*
G01X4860200Y5185800D02*
X4869800Y5198500D01*
X4881100Y5204900D01*
X4894000Y5207000D01*
X4910100Y5202800D01*
X4921300Y5192200D01*
X4924500Y5179500D01*
X4922900Y5166800D01*
X4916500Y5156200D01*
X4884300Y5135000D01*
X4869800Y5120200D01*
X4860200Y5099000D01*
X4857000Y5080000D01*
X4924500D01*
G01X5207000Y5588000D02*
G03I-254000J0D01*
G01X4676000Y8132000D02*
Y8632000D01*
X4656000Y8532000D01*
G01Y8132000D02*
X4696000D01*
G01X4826000Y8632000D02*
X4812700Y8615300D01*
X4802700Y8573700D01*
X4796000Y8523700D01*
X4791000Y8457000D01*
X4789300Y8382000D01*
X4791000Y8307000D01*
X4796000Y8240300D01*
X4802700Y8190300D01*
X4812700Y8148700D01*
X4826000Y8132000D01*
X4839300Y8148700D01*
X4849300Y8190300D01*
X4856000Y8240300D01*
X4861000Y8307000D01*
X4862700Y8382000D01*
X4861000Y8457000D01*
X4856000Y8523700D01*
X4849300Y8573700D01*
X4839300Y8615300D01*
X4826000Y8632000D01*
G01X4976000D02*
X4962700Y8615300D01*
X4952700Y8573700D01*
X4946000Y8523700D01*
X4941000Y8457000D01*
X4939300Y8382000D01*
X4941000Y8307000D01*
X4946000Y8240300D01*
X4952700Y8190300D01*
X4962700Y8148700D01*
X4976000Y8132000D01*
X4989300Y8148700D01*
X4999300Y8190300D01*
X5006000Y8240300D01*
X5011000Y8307000D01*
X5012700Y8382000D01*
X5011000Y8457000D01*
X5006000Y8523700D01*
X4999300Y8573700D01*
X4989300Y8615300D01*
X4976000Y8632000D01*
G01X4981800Y3556000D02*
Y3634700D01*
X5006200D01*
X5014000Y3630800D01*
X5018800Y3625500D01*
X5020800Y3615000D01*
X5018800Y3604500D01*
X5013000Y3598000D01*
X5006200Y3594000D01*
X4981800D01*
G01X5006200D02*
X5020800Y3556000D01*
G01X5080000D02*
Y3634700D01*
X5068300Y3619000D01*
G01Y3556000D02*
X5091700D01*
G01X5158700Y3634700D02*
X5150900Y3632100D01*
X5145100Y3625500D01*
X5141200Y3617600D01*
X5138300Y3607200D01*
X5137300Y3595300D01*
X5138300Y3583500D01*
X5141200Y3573100D01*
X5145100Y3565200D01*
X5150900Y3558600D01*
X5158700Y3556000D01*
X5166500Y3558600D01*
X5172300Y3565200D01*
X5176200Y3573100D01*
X5179100Y3583500D01*
X5180100Y3595300D01*
X5179100Y3607200D01*
X5176200Y3617600D01*
X5172300Y3625500D01*
X5166500Y3632100D01*
X5158700Y3634700D01*
G01X5050600Y5958400D02*
X5041000Y5964800D01*
X5029700Y5969000D01*
X5016900D01*
X5002400Y5962600D01*
X4991100Y5952100D01*
X4983100Y5939400D01*
X4976600Y5918200D01*
X4975000Y5899100D01*
X4978300Y5880100D01*
X4983100Y5867400D01*
X4992700Y5854700D01*
X5004000Y5846200D01*
X5015200Y5842000D01*
X5026500D01*
X5037800Y5846200D01*
X5047400Y5852600D01*
X5055500Y5861000D01*
G01X5144700Y5842000D02*
Y5969000D01*
X5125400Y5943600D01*
G01Y5842000D02*
X5164000D01*
G01X5401000Y8382000D02*
X10000000D01*
G01X6540500Y3340100D02*
Y2628900D01*
X6286500D01*
Y3340100D01*
X6540500D01*
G01X6291100Y3556000D02*
Y3634700D01*
X6315500D01*
X6323300Y3630800D01*
X6328100Y3625500D01*
X6330100Y3615000D01*
X6328100Y3604500D01*
X6322300Y3598000D01*
X6315500Y3594000D01*
X6291100D01*
G01X6315500D02*
X6330100Y3556000D01*
G01X6372800Y3565200D02*
X6379600Y3558600D01*
X6387400Y3556000D01*
X6395100Y3558600D01*
X6402000Y3566500D01*
X6406800Y3578300D01*
X6408800Y3590100D01*
Y3604500D01*
X6406800Y3616300D01*
X6402000Y3626800D01*
X6396100Y3632100D01*
X6389300Y3634700D01*
X6381500Y3632100D01*
X6375700Y3626800D01*
X6371800Y3619000D01*
X6369800Y3608500D01*
X6371800Y3599300D01*
X6376600Y3590100D01*
X6382500Y3584900D01*
X6389300Y3583500D01*
X6397100Y3586200D01*
X6402900Y3592700D01*
X6408800Y3604500D01*
G01X5905500Y5803900D02*
Y6515100D01*
X6159500D01*
Y5803900D01*
X5905500D01*
G01X6037100Y6604000D02*
Y6682700D01*
X6061500D01*
X6069300Y6678800D01*
X6074100Y6673500D01*
X6076100Y6663000D01*
X6074100Y6652500D01*
X6068300Y6646000D01*
X6061500Y6642000D01*
X6037100D01*
G01X6061500D02*
X6076100Y6604000D01*
G01X6113900Y6619700D02*
X6119700Y6610600D01*
X6127500Y6605300D01*
X6136300Y6604000D01*
X6144100Y6605300D01*
X6151800Y6611900D01*
X6156700Y6619700D01*
X6157700Y6627600D01*
X6155700Y6636800D01*
X6148900Y6643300D01*
X6142100Y6646000D01*
X6133400D01*
G01X6142100D02*
X6148000Y6649900D01*
X6152800Y6656500D01*
X6154800Y6664300D01*
X6152800Y6672200D01*
X6148000Y6678800D01*
X6139200Y6682700D01*
X6130400Y6681400D01*
X6121700Y6676100D01*
G01X7366000Y889000D02*
G03I-254000J0D01*
G01X7082600Y1386400D02*
X7073000Y1392800D01*
X7061700Y1397000D01*
X7048900D01*
X7034400Y1390600D01*
X7023100Y1380100D01*
X7015100Y1367400D01*
X7008600Y1346200D01*
X7007000Y1327100D01*
X7010300Y1308100D01*
X7015100Y1295400D01*
X7024700Y1282700D01*
X7036000Y1274200D01*
X7047200Y1270000D01*
X7058500D01*
X7069800Y1274200D01*
X7079400Y1280600D01*
X7087500Y1289000D01*
G01X7146200Y1322900D02*
X7157400Y1337700D01*
X7167100Y1346200D01*
X7180000Y1350400D01*
X7191200Y1346200D01*
X7199300Y1337700D01*
X7205700Y1325000D01*
X7207300Y1310200D01*
X7205700Y1297500D01*
X7199300Y1284800D01*
X7189600Y1274200D01*
X7178400Y1270000D01*
X7165500Y1274200D01*
X7154200Y1286900D01*
X7147800Y1306000D01*
X7146200Y1327100D01*
X7149400Y1354700D01*
X7154200Y1369500D01*
X7162300Y1384300D01*
X7173500Y1394900D01*
X7184800Y1397000D01*
X7196100Y1392800D01*
X7204100Y1382200D01*
G01X7366000Y1905000D02*
G03I-254000J0D01*
G01X7082600Y2402400D02*
X7073000Y2408800D01*
X7061700Y2413000D01*
X7048900D01*
X7034400Y2406600D01*
X7023100Y2396100D01*
X7015100Y2383400D01*
X7008600Y2362200D01*
X7007000Y2343100D01*
X7010300Y2324100D01*
X7015100Y2311400D01*
X7024700Y2298700D01*
X7036000Y2290200D01*
X7047200Y2286000D01*
X7058500D01*
X7069800Y2290200D01*
X7079400Y2296600D01*
X7087500Y2305000D01*
G01X7196100Y2286000D02*
Y2413000D01*
X7136500Y2322000D01*
X7217000D01*
G01X6451600Y4953000D02*
X6604000D01*
X6667500Y4889500D01*
X6794500D01*
X6858000Y4953000D01*
X7010400D01*
Y3937000D01*
X6451600D01*
Y4953000D01*
G01X6757900Y5207000D02*
Y5116000D01*
X6764300Y5096900D01*
X6777200Y5084200D01*
X6793200Y5080000D01*
X6809300Y5084200D01*
X6822200Y5096900D01*
X6828600Y5116000D01*
Y5207000D01*
G01X6887400Y5105400D02*
X6897000Y5090600D01*
X6909900Y5082100D01*
X6924400Y5080000D01*
X6937200Y5082100D01*
X6950100Y5092700D01*
X6958100Y5105400D01*
X6959700Y5118100D01*
X6956500Y5132900D01*
X6945300Y5143500D01*
X6934000Y5147700D01*
X6919500D01*
G01X6934000D02*
X6943700Y5154100D01*
X6951700Y5164700D01*
X6954900Y5177400D01*
X6951700Y5190100D01*
X6943700Y5200600D01*
X6929200Y5207000D01*
X6914700Y5204900D01*
X6900200Y5196400D01*
G01X7620000Y6515100D02*
Y5803900D01*
X7366000D01*
Y6515100D01*
X7620000D01*
G01X7307100Y6604000D02*
Y6682700D01*
X7331500D01*
X7339300Y6678800D01*
X7344100Y6673500D01*
X7346100Y6663000D01*
X7344100Y6652500D01*
X7338300Y6646000D01*
X7331500Y6642000D01*
X7307100D01*
G01X7331500D02*
X7346100Y6604000D01*
G01X7417000D02*
Y6682700D01*
X7381000Y6626300D01*
X7429600D01*
G01X8001000Y2628900D02*
Y3340100D01*
X8255000D01*
Y2628900D01*
X8001000D01*
G01X8483600Y4953000D02*
X8636000D01*
X8699500Y4889500D01*
X8826500D01*
X8890000Y4953000D01*
X9042400D01*
Y3937000D01*
X8483600D01*
Y4953000D01*
G01X8069100Y3556000D02*
Y3634700D01*
X8093500D01*
X8101300Y3630800D01*
X8106100Y3625500D01*
X8108100Y3615000D01*
X8106100Y3604500D01*
X8100300Y3598000D01*
X8093500Y3594000D01*
X8069100D01*
G01X8093500D02*
X8108100Y3556000D01*
G01X8165400D02*
X8167300Y3573100D01*
X8170200Y3587500D01*
X8174100Y3600600D01*
X8179000Y3615000D01*
X8186800Y3634700D01*
X8147800D01*
G01X8535900Y5207000D02*
Y5116000D01*
X8542300Y5096900D01*
X8555200Y5084200D01*
X8571200Y5080000D01*
X8587300Y5084200D01*
X8600200Y5096900D01*
X8606600Y5116000D01*
Y5207000D01*
G01X8720100Y5080000D02*
Y5207000D01*
X8660500Y5116000D01*
X8741000D01*
G01X9525000Y4953000D02*
X9779000D01*
Y4445000D01*
X9525000D01*
Y4953000D01*
G01X9593100Y5095700D02*
X9598000Y5087900D01*
X9603800Y5082600D01*
X9610700Y5080000D01*
X9618400Y5082600D01*
X9624300Y5087900D01*
X9630100Y5095700D01*
X9632100Y5106200D01*
Y5158700D01*
G01X9691300Y5080000D02*
Y5158700D01*
X9679600Y5143000D01*
G01Y5080000D02*
X9703000D01*
G01X10000000Y7250000D02*
Y8632000D01*
G01X9600000Y8319500D02*
X10000000Y8382000D01*
X9600000Y8444500D01*
Y8319500D01*
G01X10250000Y0D02*
X11680000D01*
G01X10250000Y7000000D02*
X11680000D01*
G01X11430000Y3439000D02*
Y0D01*
G01X11367500Y400000D02*
X11430000Y0D01*
X11492500Y400000D01*
X11367500D01*
G01X11351700Y3814000D02*
X11355000Y3922300D01*
X11360000Y4014000D01*
X11366700Y4097300D01*
X11375000Y4189000D01*
X11388300Y4314000D01*
X11321700D01*
G01X11505000D02*
X11491700Y4297300D01*
X11481700Y4255700D01*
X11475000Y4205700D01*
X11470000Y4139000D01*
X11468300Y4064000D01*
X11470000Y3989000D01*
X11475000Y3922300D01*
X11481700Y3872300D01*
X11491700Y3830700D01*
X11505000Y3814000D01*
X11518300Y3830700D01*
X11528300Y3872300D01*
X11535000Y3922300D01*
X11540000Y3989000D01*
X11541700Y4064000D01*
X11540000Y4139000D01*
X11535000Y4205700D01*
X11528300Y4255700D01*
X11518300Y4297300D01*
X11505000Y4314000D01*
G01X11430000Y4689000D02*
Y7000000D01*
G01X11492500Y6600000D02*
X11430000Y7000000D01*
X11367500Y6600000D01*
X11492500D01*
M02*
