G04 ================== begin FILE IDENTIFICATION RECORD ==================*
G04 Layout Name:  C:/Users/user/Desktop/work_OrCAD/my_test801/allegro/MY_TEST801.brd*
G04 Film Name:    TOP*
G04 File Format:  Gerber RS274X*
G04 File Origin:  Cadence Allegro 17.2-P019*
G04 Origin Date:  Thu Aug 01 11:13:18 2019*
G04 *
G04 Layer:  ETCH/TOP*
G04 Layer:  PIN/TOP*
G04 Layer:  VIA CLASS/TOP*
G04 *
G04 Offset:    (0.000 0.000)*
G04 Mirror:    No*
G04 Mode:      Positive*
G04 Rotation:  0*
G04 FullContactRelief:  No*
G04 UndefLineWidth:     0.000*
G04 ================== end FILE IDENTIFICATION RECORD ====================*
%FSLAX25Y25*MOMM*%
%IR0*IPPOS*OFA0.00000B0.00000*MIA0B0*SFA1.00000B1.00000*%
%ADD11C,1.524*%
%ADD12C,1.651*%
%ADD13R,1.524X1.524*%
%ADD10C,.635*%
%ADD14C,1.*%
%ADD15C,.5*%
%ADD17C,2.29*%
%ADD16C,2.418*%
G75*
%LPD*%
G75*
G36*
G01X7165900Y4471000D02*
X8133300D01*
X8250400Y4588100D01*
G02X8267800Y4580100I7220J-7218D01*
G03X8435900Y4471000I114204J-8090D01*
G01X8657700D01*
X8725500Y4403200D01*
Y3868200D01*
X8884700Y3709000D01*
X9500000D01*
Y754200D01*
X9245800D01*
Y500000D01*
X754200D01*
Y754200D01*
X500000D01*
Y6245800D01*
X754200D01*
Y6500000D01*
X3875300D01*
G03X3998700I61700J104000D01*
G01X9245800D01*
Y6245800D01*
X9500000D01*
Y3911000D01*
X8968300D01*
X8927500Y3951800D01*
Y4486800D01*
X8741300Y4673000D01*
X8435900D01*
G03X8309200Y4660400I-53932J-101003D01*
G02X8292500Y4668200I-6509J7841D01*
G01Y4701400D01*
G02X8303300Y4711600I10203J14D01*
G03X8305800Y4711500I2780J38189D01*
G01X8458200D01*
G03X8496500Y4749800I0J38300D01*
G01Y4902200D01*
G03X8458200Y4940500I-38300J0D01*
G01X8319500D01*
G02X8312200Y4957900I-62J10205D01*
G01X8333300Y4979000D01*
X8811700D01*
X8852500Y4938200D01*
Y4630200D01*
X9011700Y4471000D01*
X9090100D01*
G03X9096700Y4676300I53898J101023D01*
G01X9093500Y4674800D01*
X9054500Y4713800D01*
Y4729800D01*
G02X9071200Y4737600I10191J-41D01*
G03Y4914400I72800J88400D01*
G02X9054500Y4922200I-6509J7841D01*
G01Y5021800D01*
X8895300Y5181000D01*
X8249700D01*
X8090500Y5021800D01*
Y4713800D01*
X8049700Y4673000D01*
X7534800D01*
X7467000Y4740800D01*
Y5021800D01*
X7307800Y5181000D01*
X6154200D01*
X5995000Y5021800D01*
Y4713800D01*
X5954200Y4673000D01*
X5133900D01*
G03X5026100I-53900J-101000D01*
G01X4650300D01*
X4609500Y4713800D01*
Y5085300D01*
X4450300Y5244500D01*
X2534700D01*
X2375500Y5085300D01*
Y4922200D01*
G02X2358800Y4914400I-10191J41D01*
G03Y4737600I-72800J-88400D01*
G02X2375500Y4729800I6509J-7841D01*
G01Y4713800D01*
X2336500Y4674800D01*
G03X2339900Y4471000I-50494J-102771D01*
G01X2418300D01*
X2577500Y4630200D01*
Y5001700D01*
X2618300Y5042500D01*
X4366700D01*
X4407500Y5001700D01*
Y4950600D01*
G02X4396700Y4940400I-10203J-14D01*
G03X4394200Y4940500I-2780J-38189D01*
G01X4241800D01*
G03X4203500Y4902200I0J-38300D01*
G01Y4749800D01*
G03X4241800Y4711500I38300J0D01*
G01X4394200D01*
G03X4396700Y4711600I-280J38289D01*
G02X4407500Y4701400I597J-10186D01*
G01Y4668200D01*
G02X4390800Y4660400I-10191J41D01*
G03X4432200Y4580100I-72817J-88364D01*
G02X4449600Y4588100I10180J782D01*
G01X4566700Y4471000D01*
X5026100D01*
G03X5133900I53900J101000D01*
G01X6037800D01*
X6197000Y4630200D01*
Y4938200D01*
X6237800Y4979000D01*
X7224200D01*
X7265000Y4938200D01*
Y4673000D01*
X7165900D01*
G03Y4471000I-53900J-101000D01*
G37*
%LPC*%
G75*
G36*
G01X6235500Y4749800D02*
Y4902200D01*
G02X6273800Y4940500I38300J0D01*
G01X6426200D01*
G02X6464500Y4902200I0J-38300D01*
G01Y4749800D01*
G02X6426200Y4711500I-38300J0D01*
G01X6273800D01*
G02X6235500Y4749800I0J38300D01*
G37*
G36*
G01X4203500Y939800D02*
Y1092200D01*
G02X4241800Y1130500I38300J0D01*
G01X4394200D01*
G02X4432500Y1092200I0J-38300D01*
G01Y939800D01*
G02X4394200Y901500I-38300J0D01*
G01X4241800D01*
G02X4203500Y939800I0J38300D01*
G37*
G36*
G01X1409500Y4749800D02*
Y4902200D01*
G02X1447800Y4940500I38300J0D01*
G01X1600200D01*
G02X1638500Y4902200I0J-38300D01*
G01Y4749800D01*
G02X1600200Y4711500I-38300J0D01*
G01X1447800D01*
G02X1409500Y4749800I0J38300D01*
G37*
G36*
G01X5880100Y5512000D02*
X5165600D01*
G02Y5664000I-85600J76000D01*
G01X5817100D01*
X5880600Y5727500D01*
X5938500D01*
G02X5947700Y5565300I94002J-76029D01*
G03X5933300I-7200J-7238D01*
G01X5880100Y5512000D01*
G37*
G36*
G01X4740400D02*
X4031000D01*
G02Y5664000I-94000J76000D01*
G01X4740400D01*
G02Y5512000I85600J-76000D01*
G37*
G36*
G01X6264400Y4242000D02*
X5165600D01*
G02Y4394000I-85600J76000D01*
G01X6264400D01*
G02Y4242000I85600J-76000D01*
G37*
G36*
G01X1438400D02*
X847600D01*
G02Y4394000I-85600J76000D01*
G01X1438400D01*
G02Y4242000I85600J-76000D01*
G37*
G36*
G01X4232400D02*
X3904000D01*
G02Y4394000I-94000J76000D01*
G01X4232400D01*
G02Y4242000I85600J-76000D01*
G37*
G36*
G01X2371600Y4394000D02*
X2700000D01*
G02Y4242000I94000J-76000D01*
G01X2371600D01*
G02Y4394000I-85600J76000D01*
G37*
G36*
G01X6451000Y3883200D02*
X6276800Y3709000D01*
X1597200D01*
X1423000Y3883200D01*
Y4010100D01*
G02X1625600Y4011200I101010J53906D01*
G01X1625000Y4010000D01*
Y3966800D01*
X1680800Y3911000D01*
X4217000D01*
Y4010100D01*
G02X4419000I101000J53900D01*
G01Y3911000D01*
X6193200D01*
X6249000Y3966800D01*
Y4010000D01*
X6248400Y4011200D01*
G02X6403900Y4165000I101600J52786D01*
G01X6836300D01*
X6987900Y4013500D01*
G03X7004600Y4024200I7135J7246D01*
G02X7200400Y3991200I107386J39784D01*
G03X7208200Y3974500I7841J-6509D01*
G01X8240200D01*
X8279200Y4013500D01*
X8277700Y4016700D01*
G02X8483000Y4010100I104277J47298D01*
G01Y3931700D01*
X8323800Y3772500D01*
X6943200D01*
X6752700Y3963000D01*
X6451000D01*
Y3883200D01*
G37*
G36*
G01X6319500Y3416500D02*
X5110500D01*
G02Y3568500I-94000J76000D01*
G01X6319500D01*
G02Y3416500I94000J-76000D01*
G37*
G36*
G01X2200400Y2972000D02*
X1872000D01*
G02Y3124000I-94000J76000D01*
G01X2200400D01*
G02Y2972000I85600J-76000D01*
G37*
G36*
G01X8034000Y2400500D02*
X6507500D01*
G02Y2552500I-94000J76000D01*
G01X8034000D01*
G02Y2400500I94000J-76000D01*
G37*
G36*
G01X4950000Y2375500D02*
X3876500D01*
G02Y2577500I-66500J101000D01*
G01X4950000D01*
G02Y2375500I66500J-101000D01*
G37*
G36*
G01X1020600Y1892400D02*
X1022800Y1892300D01*
X1067000Y1936500D01*
Y1963500D01*
X1211500Y2108000D01*
X2454400D01*
G02X2625600I85600J-76000D01*
G01X4203200D01*
X4203700Y2112500D01*
G02X4241800Y2146500I38100J-4347D01*
G01X4394200D01*
G02X4432500Y2108200I0J-38300D01*
G01Y1955800D01*
G02X4394200Y1917500I-38300J0D01*
G01X4241800D01*
G02X4203700Y1951500I0J38347D01*
G01X4203200Y1956000D01*
X2625600D01*
G02X2454400I-85600J76000D01*
G01X1274500D01*
X1219000Y1900500D01*
Y1873500D01*
X1130300Y1784800D01*
X1130400Y1782600D01*
G02X1020600Y1892400I-114400J-4600D01*
G37*
G36*
G01X2641000Y1545700D02*
X2518300Y1423000D01*
X1069900D01*
G02Y1625000I-53900J101000D01*
G01X2434700D01*
X2439000Y1629300D01*
Y1724100D01*
G02X2593900Y1879000I101000J53900D01*
G01X4264100D01*
G02X4419000Y1724100I53900J-101000D01*
G01Y1629300D01*
X4459800Y1588500D01*
X7011000D01*
Y1677000D01*
X5133900D01*
G02Y1879000I-53900J101000D01*
G01X6859400D01*
Y2133000D01*
X7058100D01*
G02X7074900Y1923700I53916J-100997D01*
G03X7061400Y1914000I-3296J-9657D01*
G01Y1896000D01*
G03X7074900Y1886300I10204J-43D01*
G02X7213000Y1724100I37088J-108313D01*
G01Y1069900D01*
G02X7011000I-101000J-53900D01*
G01Y1386500D01*
X4376200D01*
X4217000Y1545700D01*
Y1677000D01*
X2641000D01*
Y1545700D01*
G37*
G36*
G01X7058100Y661000D02*
X5133900D01*
G02Y863000I-53900J101000D01*
G01X7058100D01*
G02Y661000I53900J-101000D01*
G37*
G36*
G01X4232400Y686000D02*
X2625600D01*
G02X2454400I-85600J76000D01*
G01X1034500D01*
X940000Y780500D01*
Y1184400D01*
G02X1092000I76000J85600D01*
G01Y843500D01*
X1097500Y838000D01*
X2454400D01*
G02X2625600I85600J-76000D01*
G01X4232400D01*
G02Y686000I85600J-76000D01*
G37*
G54D17*
X762000Y4064000D03*
X1524000Y4572000D03*
X2540000Y1016000D03*
Y3302000D03*
X2286000Y4064000D03*
X2794000Y3048000D03*
X5080000Y1016000D03*
Y2032000D03*
Y4064000D03*
Y4826000D03*
X6350000Y4572000D03*
X7112000Y4318000D03*
Y4826000D03*
X8382000Y4318000D03*
X9144000Y4064000D03*
Y4318000D03*
G54D16*
X762000Y3048000D03*
X1016000Y6096000D03*
X2032000D03*
X3810000Y3492500D03*
X7493000Y5651500D03*
X8128000Y3492500D03*
%LPD*%
G75*
G54D10*
X500000Y500000D03*
Y6500000D03*
X9500000Y500000D03*
Y6500000D03*
G54D11*
X1016000Y1270000D03*
Y1524000D03*
Y1778000D03*
X762000Y4064000D03*
Y4318000D03*
X1524000Y4064000D03*
Y4318000D03*
Y4572000D03*
X2540000Y1016000D03*
Y762000D03*
Y1778000D03*
Y2032000D03*
X2286000Y3048000D03*
X2540000Y3302000D03*
X2286000Y4064000D03*
Y4318000D03*
Y4572000D03*
Y4826000D03*
X2794000Y3048000D03*
X4318000Y762000D03*
Y1778000D03*
Y4064000D03*
Y4318000D03*
Y4572000D03*
X4826000Y5588000D03*
X5080000Y1016000D03*
Y762000D03*
Y1778000D03*
Y2032000D03*
Y4064000D03*
Y4318000D03*
Y4572000D03*
Y4826000D03*
Y5588000D03*
X6350000Y4064000D03*
Y4318000D03*
Y4572000D03*
X7112000Y1016000D03*
Y762000D03*
Y1778000D03*
Y2032000D03*
Y4064000D03*
Y4318000D03*
Y4572000D03*
Y4826000D03*
X8382000Y4064000D03*
Y4318000D03*
Y4572000D03*
X9144000Y4064000D03*
Y4318000D03*
Y4572000D03*
Y4826000D03*
X9652000Y4572000D03*
Y4826000D03*
G54D12*
X762000Y3048000D03*
X1016000Y6096000D03*
X1778000Y3048000D03*
X2032000Y6096000D03*
X2794000Y4318000D03*
X3810000Y2476500D03*
Y3492500D03*
Y4318000D03*
X3937000Y5588000D03*
Y6604000D03*
X5016500Y2476500D03*
Y3492500D03*
X6413500Y2476500D03*
Y3492500D03*
X6032500Y5651500D03*
Y6667500D03*
X7493000Y5651500D03*
Y6667500D03*
X8128000Y2476500D03*
Y3492500D03*
G54D13*
X1524000Y4826000D03*
X4318000Y1016000D03*
Y2032000D03*
Y4826000D03*
X6350000D03*
X8382000D03*
G54D14*
G01X2540000Y1778000D02*
Y1587500D01*
X2476500Y1524000D01*
X1016000D01*
G01X1524000Y4064000D02*
Y3925000D01*
X1639000Y3810000D01*
X4318000D01*
G01X2540000Y1778000D02*
X4318000D01*
G01X2286000Y4572000D02*
X2376500D01*
X2476500Y4672000D01*
Y5043500D01*
X2576500Y5143500D01*
X4408500D01*
X4508500Y5043500D01*
Y4672000D01*
X4608500Y4572000D01*
X5080000D01*
G01X3810000Y2476500D02*
X5016500D01*
G01X7112000Y1460500D02*
X7085000Y1487500D01*
X4418000D01*
X4318000Y1587500D01*
Y1778000D01*
G01Y3810000D02*
Y4064000D01*
G01X6350000D02*
Y3925000D01*
X6235000Y3810000D01*
X4318000D01*
G01X5080000Y762000D02*
X7112000D01*
G01X5080000Y1778000D02*
X6960400D01*
Y2032000D01*
X7112000D01*
G01X7493000Y4572000D02*
X7366000Y4699000D01*
Y4980000D01*
X7266000Y5080000D01*
X6196000D01*
X6096000Y4980000D01*
Y4672000D01*
X5996000Y4572000D01*
X5080000D01*
G01X8382000Y4064000D02*
Y3973500D01*
X8282000Y3873500D01*
X6985000D01*
X6794500Y4064000D01*
X6350000D01*
G01X7112000Y1460500D02*
Y1016000D01*
G01Y1778000D02*
Y1460500D01*
G01X7493000Y4572000D02*
X7112000D01*
G01X9144000D02*
X9053500D01*
X8953500Y4672000D01*
Y4980000D01*
X8853500Y5080000D01*
X8291500D01*
X8191500Y4980000D01*
Y4672000D01*
X8091500Y4572000D01*
X7493000D01*
G01X9652000D02*
Y3910000D01*
X9552000Y3810000D01*
X8926500D01*
X8826500Y3910000D01*
Y4445000D01*
X8699500Y4572000D01*
X8382000D01*
G54D15*
G01X2540000Y762000D02*
X1066000D01*
X1016000Y812000D01*
Y1270000D01*
G01X2540000Y2032000D02*
X1243000D01*
X1143000Y1932000D01*
Y1905000D01*
X1016000Y1778000D01*
G01X762000Y4318000D02*
X1524000D01*
G01X1778000Y3048000D02*
X2286000D01*
G01X2540000Y762000D02*
X4318000D01*
G01X2540000Y2032000D02*
X4318000D01*
G01X2286000Y4318000D02*
X2794000D01*
G01X3810000D02*
X4318000D01*
G01X3937000Y5588000D02*
X4826000D01*
G01X5016500Y3492500D02*
X6413500D01*
G01X5080000Y4318000D02*
X6350000D01*
G01X5080000Y5588000D02*
X5848600D01*
X5912100Y5651500D01*
X6032500D01*
G01X6413500Y2476500D02*
X8128000D01*
G01X6032500Y6667500D02*
X7493000D01*
M02*
